<?xml version="1.0" encoding="UTF-8"?><svg id="a" xmlns="http://www.w3.org/2000/svg" xmlns:xlink="http://www.w3.org/1999/xlink" viewBox="0 0 498.15 488.59"><defs><style>.c{fill:url(#b);}</style><linearGradient id="b" x1="25.17" y1="71.42" x2="406.81" y2="453.06" gradientTransform="matrix(1, 0, 0, 1, 0, 0)" gradientUnits="userSpaceOnUse"><stop offset="0" stop-color="#ffe04a"/><stop offset=".99" stop-color="#ffa800"/></linearGradient></defs><path class="c" d="M441.98,153.16c27.19,19.39,41.81,45,49.15,74.64,26.13,105.41-21.83,198.03-124.23,236.09-75.77,28.16-154.7,31.3-233.06,14.23-61.6-13.42-106.01-51-120.21-114.52-14.29-63.92,8.48-116.02,60.04-156.03,17-13.19,15.7-17.62-3.5-29.47-18.28-11.27-36.4-23.23-52.65-37.14-7.87-6.74-13.04-18.09-16.32-28.34-4.77-14.91,5.01-27.52,20.83-29.39,5.48-.65,11.27-.73,16.67,.28,22.6,4.22,36.42-5.22,47.34-24.94C107.77,19.39,142.19-.83,187.33,.03c43.36,.82,75.83,21.41,97.05,58.89,22.4,39.56,17.17,87.99-12.63,125.11-16.72,20.83-14.77,29.58,11.33,31.83,28.09,2.42,56.93,1.8,84.92-1.7,26.73-3.34,46.96-20.03,61.15-43.3,3.53-5.79,7.95-11.03,12.82-17.69Z"/></svg>